{
  "accessors": [
    {
      "bufferView": 2,
      "componentType": 5126,
      "count": 301,
      "max": [
        92.89503479003906,
        0.9443674087524414,
        -38.94618225097656
      ],
      "min": [
        39.0880012512207,
        -1.9715971946716309,
        -101.30200958251953
      ],
      "type": "VEC3"
    },
    {
      "bufferView": 2,
      "byteOffset": 3612,
      "componentType": 5126,
      "count": 301,
      "max": [
        1.0,
        1.0,
        1.0
      ],
      "min": [
        -1.0,
        -1.0,
        -1.0
      ],
      "type": "VEC3"
    },
    {
      "bufferView": 1,
      "componentType": 5126,
      "count": 301,
      "max": [
        0.33515727519989014,
        0.9854548573493958
      ],
      "min": [
        0.016524774953722954,
        0.12941844761371613
      ],
      "type": "VEC2"
    },
    {
      "bufferView": 1,
      "byteOffset": 2408,
      "componentType": 5126,
      "count": 301,
      "max": [
        0.33515727519989014,
        0.9854548573493958
      ],
      "min": [
        0.016524774953722954,
        0.12941844761371613
      ],
      "type": "VEC2"
    },
    {
      "bufferView": 0,
      "componentType": 5125,
      "count": 588,
      "type": "SCALAR"
    },
    {
      "bufferView": 2,
      "byteOffset": 7224,
      "componentType": 5126,
      "count": 160,
      "max": [
        33.52463150024414,
        0.9443578720092773,
        33.52463150024414
      ],
      "min": [
        -33.52463150024414,
        -2.042938232421875,
        -33.52463150024414
      ],
      "type": "VEC3"
    },
    {
      "bufferView": 2,
      "byteOffset": 9144,
      "componentType": 5126,
      "count": 160,
      "max": [
        1.0,
        1.0,
        1.0
      ],
      "min": [
        -1.0,
        -1.0,
        -1.0
      ],
      "type": "VEC3"
    },
    {
      "bufferView": 1,
      "byteOffset": 4816,
      "componentType": 5126,
      "count": 160,
      "max": [
        0.573790431022644,
        0.6128217577934265
      ],
      "min": [
        0.011222642846405506,
        0.011827773414552212
      ],
      "type": "VEC2"
    },
    {
      "bufferView": 1,
      "byteOffset": 6096,
      "componentType": 5126,
      "count": 160,
      "max": [
        0.573790431022644,
        0.6128217577934265
      ],
      "min": [
        0.011222642846405506,
        0.011827773414552212
      ],
      "type": "VEC2"
    },
    {
      "bufferView": 0,
      "byteOffset": 2352,
      "componentType": 5125,
      "count": 252,
      "type": "SCALAR"
    },
    {
      "bufferView": 2,
      "byteOffset": 11064,
      "componentType": 5126,
      "count": 404,
      "max": [
        87.56462097167969,
        0.9443566203117371,
        25.064598083496094
      ],
      "min": [
        44.418418884277344,
        -2.031751871109009,
        -19.288480758666992
      ],
      "type": "VEC3"
    },
    {
      "bufferView": 2,
      "byteOffset": 15912,
      "componentType": 5126,
      "count": 404,
      "max": [
        1.0,
        1.0,
        1.0
      ],
      "min": [
        -1.0,
        -1.0,
        -1.0
      ],
      "type": "VEC3"
    },
    {
      "bufferView": 1,
      "byteOffset": 7376,
      "componentType": 5126,
      "count": 404,
      "max": [
        0.6215713620185852,
        0.937313973903656
      ],
      "min": [
        0.3146336078643799,
        0.1405630111694336
      ],
      "type": "VEC2"
    },
    {
      "bufferView": 1,
      "byteOffset": 10608,
      "componentType": 5126,
      "count": 404,
      "max": [
        0.6215713620185852,
        0.937313973903656
      ],
      "min": [
        0.3146336078643799,
        0.1405630111694336
      ],
      "type": "VEC2"
    },
    {
      "bufferView": 0,
      "byteOffset": 3360,
      "componentType": 5125,
      "count": 1092,
      "type": "SCALAR"
    },
    {
      "bufferView": 2,
      "byteOffset": 20760,
      "componentType": 5126,
      "count": 236,
      "max": [
        203.68325805664063,
        0.9443694353103638,
        38.68965530395508
      ],
      "min": [
        98.70108032226563,
        -1.9823787212371826,
        -107.93565368652344
      ],
      "type": "VEC3"
    },
    {
      "bufferView": 2,
      "byteOffset": 23592,
      "componentType": 5126,
      "count": 236,
      "max": [
        1.0,
        1.0,
        1.0
      ],
      "min": [
        -1.0,
        -1.0,
        -1.0
      ],
      "type": "VEC3"
    },
    {
      "bufferView": 1,
      "byteOffset": 13840,
      "componentType": 5126,
      "count": 236,
      "max": [
        0.9913345575332642,
        0.568023145198822
      ],
      "min": [
        0.12898340821266174,
        0.010219200514256954
      ],
      "type": "VEC2"
    },
    {
      "bufferView": 1,
      "byteOffset": 15728,
      "componentType": 5126,
      "count": 236,
      "max": [
        0.9913345575332642,
        0.568023145198822
      ],
      "min": [
        0.12898340821266174,
        0.010219200514256954
      ],
      "type": "VEC2"
    },
    {
      "bufferView": 0,
      "byteOffset": 7728,
      "componentType": 5125,
      "count": 396,
      "type": "SCALAR"
    },
    {
      "bufferView": 2,
      "byteOffset": 26424,
      "componentType": 5126,
      "count": 280,
      "max": [
        33.52622604370117,
        0.9443680047988892,
        -36.59946823120117
      ],
      "min": [
        -33.5246696472168,
        -2.0316240787506104,
        -103.64871978759766
      ],
      "type": "VEC3"
    },
    {
      "bufferView": 2,
      "byteOffset": 29784,
      "componentType": 5126,
      "count": 280,
      "max": [
        1.0,
        1.0,
        1.0
      ],
      "min": [
        -1.0,
        -1.0,
        -1.0
      ],
      "type": "VEC3"
    },
    {
      "bufferView": 1,
      "byteOffset": 17616,
      "componentType": 5126,
      "count": 280,
      "max": [
        0.9917967915534973,
        0.9724709987640381
      ],
      "min": [
        0.3137984871864319,
        0.010692714713513851
      ],
      "type": "VEC2"
    },
    {
      "bufferView": 1,
      "byteOffset": 19856,
      "componentType": 5126,
      "count": 280,
      "max": [
        0.9917967915534973,
        0.9724709987640381
      ],
      "min": [
        0.3137984871864319,
        0.010692714713513851
      ],
      "type": "VEC2"
    },
    {
      "bufferView": 0,
      "byteOffset": 9312,
      "componentType": 5125,
      "count": 588,
      "type": "SCALAR"
    }
  ],
  "asset": {
    "extras": {
      "author": "Misam Ali Rizvi (https://sketchfab.com/MisamAliRizvi)",
      "license": "CC-BY-4.0 (http://creativecommons.org/licenses/by/4.0/)",
      "source": "https://sketchfab.com/3d-models/frames-version-02-3f6b02f1678f4f68ac765537f5e520e7",
      "title": "Frames Version 02"
    },
    "generator": "Sketchfab-14.87.0",
    "version": "2.0"
  },
  "bufferViews": [
    {
      "buffer": 0,
      "byteLength": 11664,
      "name": "floatBufferViews",
      "target": 34963
    },
    {
      "buffer": 0,
      "byteLength": 22096,
      "byteOffset": 11664,
      "byteStride": 8,
      "name": "floatBufferViews",
      "target": 34962
    },
    {
      "buffer": 0,
      "byteLength": 33144,
      "byteOffset": 33760,
      "byteStride": 12,
      "name": "floatBufferViews",
      "target": 34962
    }
  ],
  "buffers": [
    {
      "byteLength": 66904,
      "uri": "scene.bin"
    }
  ],
  "extensionsRequired": [
    "KHR_materials_pbrSpecularGlossiness"
  ],
  "extensionsUsed": [
    "KHR_materials_pbrSpecularGlossiness"
  ],
  "images": [
    {
      "uri": "textures/Frame_Version_02_diffuse.jpeg"
    },
    {
      "uri": "textures/Frame_Version_02_specularGlossiness.png"
    }
  ],
  "materials": [
    {
      "doubleSided": true,
      "extensions": {
        "KHR_materials_pbrSpecularGlossiness": {
          "diffuseFactor": [
            1.0,
            1.0,
            1.0,
            1.0
          ],
          "diffuseTexture": {
            "index": 0
          },
          "glossinessFactor": 1.0,
          "specularFactor": [
            0.7982127330986387,
            0.7982127330986387,
            0.7982127330986387
          ],
          "specularGlossinessTexture": {
            "index": 1
          }
        }
      },
      "name": "Frame_Version_02"
    }
  ],
  "meshes": [
    {
      "name": "Frame_04_Frame_Version_02_0",
      "primitives": [
        {
          "attributes": {
            "NORMAL": 1,
            "POSITION": 0,
            "TEXCOORD_0": 2,
            "TEXCOORD_1": 3
          },
          "indices": 4,
          "material": 0,
          "mode": 4
        }
      ]
    },
    {
      "name": "Frame_01_Frame_Version_02_0",
      "primitives": [
        {
          "attributes": {
            "NORMAL": 6,
            "POSITION": 5,
            "TEXCOORD_0": 7,
            "TEXCOORD_1": 8
          },
          "indices": 9,
          "material": 0,
          "mode": 4
        }
      ]
    },
    {
      "name": "Frame_02_Frame_Version_02_0",
      "primitives": [
        {
          "attributes": {
            "NORMAL": 11,
            "POSITION": 10,
            "TEXCOORD_0": 12,
            "TEXCOORD_1": 13
          },
          "indices": 14,
          "material": 0,
          "mode": 4
        }
      ]
    },
    {
      "name": "Frame_05_Frame_Version_02_0",
      "primitives": [
        {
          "attributes": {
            "NORMAL": 16,
            "POSITION": 15,
            "TEXCOORD_0": 17,
            "TEXCOORD_1": 18
          },
          "indices": 19,
          "material": 0,
          "mode": 4
        }
      ]
    },
    {
      "name": "Frame_03_Frame_Version_02_0",
      "primitives": [
        {
          "attributes": {
            "NORMAL": 21,
            "POSITION": 20,
            "TEXCOORD_0": 22,
            "TEXCOORD_1": 23
          },
          "indices": 24,
          "material": 0,
          "mode": 4
        }
      ]
    }
  ],
  "nodes": [
    {
      "children": [
        1
      ],
      "matrix": [
        1.0,
        1.6081226229577292e-16,
        6.340815480754295e-32,
        0.0,
        1.7853747624282703e-32,
        -5.053215392444312e-16,
        1.0,
        0.0,
        1.6081226229577292e-16,
        -1.0,
        -5.053215392444312e-16,
        0.0,
        0.0,
        0.0,
        0.0,
        1.0
      ],
      "name": "Sketchfab_model"
    },
    {
      "children": [
        2
      ],
      "matrix": [
        1.0,
        0.0,
        0.0,
        0.0,
        0.0,
        -1.0,
        0.0,
        0.0,
        0.0,
        0.0,
        -1.0,
        0.0,
        0.0,
        0.0,
        0.0,
        1.0
      ],
      "name": "a433add172ef44449be804cba337892b.fbx"
    },
    {
      "children": [
        3
      ],
      "name": "RootNode"
    },
    {
      "children": [
        4,
        7,
        10,
        13,
        16
      ],
      "matrix": [
        1.0,
        0.0,
        0.0,
        0.0,
        0.0,
        -4.3711388064693324e-08,
        0.999999999999999,
        0.0,
        0.0,
        -0.999999999999999,
        -4.3711388064693324e-08,
        0.0,
        0.0,
        0.0,
        0.0,
        1.0
      ],
      "name": "Frame_Version_02"
    },
    {
      "children": [
        5
      ],
      "matrix": [
        1.0,
        0.0,
        0.0,
        0.0,
        -0.0,
        -1.6292068472090193e-07,
        -0.9999999999999868,
        0.0,
        0.0,
        0.9999999999999868,
        -1.6292068472090193e-07,
        0.0,
        -19.87133026123047,
        -79.42927551269531,
        1.5275340047082864e-05,
        1.0
      ],
      "name": "Frame_04"
    },
    {
      "children": [
        6
      ],
      "matrix": [
        1.0,
        0.0,
        -0.0,
        0.0,
        0.0,
        1.0,
        0.0,
        0.0,
        0.0,
        0.0,
        1.0,
        0.0,
        -65.99151611328125,
        -0.9443573951721191,
        40.73963928222656,
        1.0
      ],
      "name": "Object_5"
    },
    {
      "mesh": 0,
      "name": "Frame_04_Frame_Version_02_0"
    },
    {
      "children": [
        8
      ],
      "matrix": [
        1.0,
        0.0,
        0.0,
        0.0,
        -0.0,
        -1.6292068472090193e-07,
        -0.9999999999999868,
        0.0,
        0.0,
        0.9999999999999868,
        -1.6292068472090193e-07,
        0.0,
        -85.86284637451172,
        -5.962238788604736,
        3.053413092857227e-05,
        1.0
      ],
      "name": "Frame_01"
    },
    {
      "children": [
        9
      ],
      "matrix": [
        1.0,
        0.0,
        -0.0,
        0.0,
        0.0,
        1.0,
        0.0,
        0.0,
        0.0,
        0.0,
        1.0,
        0.0,
        0.0,
        -0.9443470239639282,
        -32.7274169921875,
        1.0
      ],
      "name": "Object_8"
    },
    {
      "mesh": 1,
      "name": "Frame_01_Frame_Version_02_0"
    },
    {
      "children": [
        11
      ],
      "matrix": [
        1.0,
        0.0,
        0.0,
        0.0,
        -0.0,
        -1.6292068472090193e-07,
        -0.9999999999999868,
        0.0,
        0.0,
        0.9999999999999868,
        -1.6292068472090193e-07,
        0.0,
        -19.87133026123047,
        -16.90202522277832,
        1.5275340047082864e-05,
        1.0
      ],
      "name": "Frame_02"
    },
    {
      "children": [
        12
      ],
      "matrix": [
        1.0,
        0.0,
        -0.0,
        0.0,
        0.0,
        1.0,
        0.0,
        0.0,
        0.0,
        0.0,
        1.0,
        0.0,
        -65.99151611328125,
        -0.9443495273590088,
        -21.787628173828125,
        1.0
      ],
      "name": "Object_11"
    },
    {
      "mesh": 2,
      "name": "Frame_02_Frame_Version_02_0"
    },
    {
      "children": [
        14
      ],
      "matrix": [
        1.0,
        0.0,
        0.0,
        0.0,
        0.0,
        -1.6292068472090193e-07,
        -0.9999999999999868,
        0.0,
        0.0,
        0.9999999999999868,
        -1.6292068472090193e-07,
        0.0,
        65.3293228149414,
        -1.4252525568008423,
        1.6551680914744793e-08,
        1.0
      ],
      "name": "Frame_05"
    },
    {
      "children": [
        15
      ],
      "matrix": [
        1.0,
        0.0,
        -0.0,
        0.0,
        0.0,
        1.0,
        0.0,
        0.0,
        0.0,
        0.0,
        1.0,
        0.0,
        -151.19216918945313,
        -0.9443457126617432,
        -37.264404296875,
        1.0
      ],
      "name": "Object_14"
    },
    {
      "mesh": 3,
      "name": "Frame_05_Frame_Version_02_0"
    },
    {
      "children": [
        17
      ],
      "matrix": [
        1.0,
        0.0,
        0.0,
        0.0,
        -0.0,
        -1.6292068472090193e-07,
        -0.9999999999999868,
        0.0,
        0.0,
        0.9999999999999868,
        -1.6292068472090193e-07,
        0.0,
        -85.86206817626953,
        -77.28662109375,
        1.5275340047082864e-05,
        1.0
      ],
      "name": "Frame_03"
    },
    {
      "children": [
        18
      ],
      "matrix": [
        1.0,
        0.0,
        -0.0,
        0.0,
        0.0,
        1.0,
        0.0,
        0.0,
        0.0,
        0.0,
        1.0,
        0.0,
        -0.0007781982421875,
        -0.9443570971488953,
        38.59698486328125,
        1.0
      ],
      "name": "Object_17"
    },
    {
      "mesh": 4,
      "name": "Frame_03_Frame_Version_02_0"
    }
  ],
  "samplers": [
    {
      "magFilter": 9729,
      "minFilter": 9987,
      "wrapS": 10497,
      "wrapT": 10497
    }
  ],
  "scene": 0,
  "scenes": [
    {
      "name": "Sketchfab_Scene",
      "nodes": [
        0
      ]
    }
  ],
  "textures": [
    {
      "sampler": 0,
      "source": 0
    },
    {
      "sampler": 0,
      "source": 1
    }
  ]
}
