{
  "accessors": [
    {
      "bufferView": 2,
      "componentType": 5126,
      "count": 224,
      "max": [
        30.5,
        3.814697265625e-06,
        0.0
      ],
      "min": [
        -30.5,
        -91.0,
        -5.91018533706665
      ],
      "type": "VEC3"
    },
    {
      "bufferView": 2,
      "byteOffset": 2688,
      "componentType": 5126,
      "count": 224,
      "max": [
        0.9039933085441589,
        0.9040148258209229,
        1.0
      ],
      "min": [
        -0.9039933085441589,
        -0.903979480266571,
        -1.0
      ],
      "type": "VEC3"
    },
    {
      "bufferView": 3,
      "componentType": 5126,
      "count": 224,
      "max": [
        1.0,
        0.2854442596435547,
        0.9039932489395142,
        1.0
      ],
      "min": [
        -1.0,
        -0.2854441702365875,
        -0.9039933085441589,
        -1.0
      ],
      "type": "VEC4"
    },
    {
      "bufferView": 1,
      "componentType": 5126,
      "count": 224,
      "max": [
        0.9993479251861572,
        0.9993981719017029
      ],
      "min": [
        0.0018746409332379699,
        0.001874685287475586
      ],
      "type": "VEC2"
    },
    {
      "bufferView": 1,
      "byteOffset": 1792,
      "componentType": 5126,
      "count": 224,
      "max": [
        0.9993479251861572,
        0.9993981719017029
      ],
      "min": [
        0.0018746409332379699,
        0.001874685287475586
      ],
      "type": "VEC2"
    },
    {
      "bufferView": 1,
      "byteOffset": 3584,
      "componentType": 5126,
      "count": 224,
      "max": [
        0.9993479251861572,
        0.9993981719017029
      ],
      "min": [
        0.0018746409332379699,
        0.001874685287475586
      ],
      "type": "VEC2"
    },
    {
      "bufferView": 1,
      "byteOffset": 5376,
      "componentType": 5126,
      "count": 224,
      "max": [
        0.9993479251861572,
        0.9993981719017029
      ],
      "min": [
        0.0018746409332379699,
        0.001874685287475586
      ],
      "type": "VEC2"
    },
    {
      "bufferView": 1,
      "byteOffset": 7168,
      "componentType": 5126,
      "count": 224,
      "max": [
        0.9993479251861572,
        0.9993981719017029
      ],
      "min": [
        0.0018746409332379699,
        0.001874685287475586
      ],
      "type": "VEC2"
    },
    {
      "bufferView": 1,
      "byteOffset": 8960,
      "componentType": 5126,
      "count": 224,
      "max": [
        0.9993479251861572,
        0.9993981719017029
      ],
      "min": [
        0.0018746409332379699,
        0.001874685287475586
      ],
      "type": "VEC2"
    },
    {
      "bufferView": 1,
      "byteOffset": 10752,
      "componentType": 5126,
      "count": 224,
      "max": [
        0.9993479251861572,
        0.9993981719017029
      ],
      "min": [
        0.0018746409332379699,
        0.001874685287475586
      ],
      "type": "VEC2"
    },
    {
      "bufferView": 1,
      "byteOffset": 12544,
      "componentType": 5126,
      "count": 224,
      "max": [
        0.9993479251861572,
        0.9993981719017029
      ],
      "min": [
        0.0018746409332379699,
        0.001874685287475586
      ],
      "type": "VEC2"
    },
    {
      "bufferView": 1,
      "byteOffset": 14336,
      "componentType": 5126,
      "count": 224,
      "max": [
        0.9993479251861572,
        0.9993981719017029
      ],
      "min": [
        0.0018746409332379699,
        0.001874685287475586
      ],
      "type": "VEC2"
    },
    {
      "bufferView": 1,
      "byteOffset": 16128,
      "componentType": 5126,
      "count": 224,
      "max": [
        0.9993479251861572,
        0.9993981719017029
      ],
      "min": [
        0.0018746409332379699,
        0.001874685287475586
      ],
      "type": "VEC2"
    },
    {
      "bufferView": 0,
      "componentType": 5125,
      "count": 1080,
      "type": "SCALAR"
    }
  ],
  "asset": {
    "extras": {
      "author": "Kami Rapacz (https://sketchfab.com/kuroderuta)",
      "license": "CC-BY-4.0 (http://creativecommons.org/licenses/by/4.0/)",
      "source": "https://sketchfab.com/3d-models/worn-sci-fi-retro-travel-poster-16d8f865f0614ec59110dd31eed40530",
      "title": "Worn Sci-Fi Retro Travel Poster"
    },
    "generator": "Sketchfab-15.36.0",
    "version": "2.0"
  },
  "bufferViews": [
    {
      "buffer": 0,
      "byteLength": 4320,
      "name": "floatBufferViews",
      "target": 34963
    },
    {
      "buffer": 0,
      "byteLength": 17920,
      "byteOffset": 4320,
      "byteStride": 8,
      "name": "floatBufferViews",
      "target": 34962
    },
    {
      "buffer": 0,
      "byteLength": 5376,
      "byteOffset": 22240,
      "byteStride": 12,
      "name": "floatBufferViews",
      "target": 34962
    },
    {
      "buffer": 0,
      "byteLength": 3584,
      "byteOffset": 27616,
      "byteStride": 16,
      "name": "floatBufferViews",
      "target": 34962
    }
  ],
  "buffers": [
    {
      "byteLength": 31200,
      "uri": "scene.bin"
    }
  ],
  "images": [
    {
      "uri": "textures/Poster_baseColor.png"
    },
    {
      "uri": "textures/Poster_metallicRoughness.png"
    },
    {
      "uri": "textures/Poster_normal.png"
    }
  ],
  "materials": [
    {
      "alphaMode": "BLEND",
      "doubleSided": true,
      "name": "Poster",
      "normalTexture": {
        "index": 2
      },
      "pbrMetallicRoughness": {
        "baseColorTexture": {
          "index": 0
        },
        "metallicRoughnessTexture": {
          "index": 1
        }
      }
    }
  ],
  "meshes": [
    {
      "name": "Poster_Poster_0",
      "primitives": [
        {
          "attributes": {
            "NORMAL": 1,
            "POSITION": 0,
            "TANGENT": 2,
            "TEXCOORD_0": 3,
            "TEXCOORD_1": 4,
            "TEXCOORD_2": 5,
            "TEXCOORD_3": 6,
            "TEXCOORD_4": 7,
            "TEXCOORD_5": 8,
            "TEXCOORD_6": 9,
            "TEXCOORD_7": 10,
            "TEXCOORD_8": 11,
            "TEXCOORD_9": 12
          },
          "indices": 13,
          "material": 0,
          "mode": 4
        }
      ]
    }
  ],
  "nodes": [
    {
      "children": [
        1
      ],
      "matrix": [
        -1.0,
        6.290011496532519e-32,
        -2.832769343193999e-16,
        0.0,
        -2.832769343193999e-16,
        -2.220446049250313e-16,
        1.0,
        0.0,
        0.0,
        1.0,
        2.220446049250313e-16,
        0.0,
        0.0,
        0.0,
        0.0,
        1.0
      ],
      "name": "Sketchfab_model"
    },
    {
      "children": [
        2
      ],
      "matrix": [
        0.009999999776482582,
        0.0,
        0.0,
        0.0,
        0.0,
        0.0,
        0.009999999776482582,
        0.0,
        0.0,
        -0.009999999776482582,
        0.0,
        0.0,
        0.0,
        0.0,
        0.0,
        1.0
      ],
      "name": "Poster.fbx"
    },
    {
      "children": [
        3
      ],
      "name": "RootNode"
    },
    {
      "children": [
        4
      ],
      "matrix": [
        1.0,
        0.0,
        0.0,
        0.0,
        0.0,
        1.0,
        0.0,
        0.0,
        0.0,
        0.0,
        1.0,
        0.0,
        0.0,
        96.13052368164063,
        1.7059617042541504,
        1.0
      ],
      "name": "Poster"
    },
    {
      "mesh": 0,
      "name": "Poster_Poster_0"
    }
  ],
  "samplers": [
    {
      "magFilter": 9729,
      "minFilter": 9987,
      "wrapS": 10497,
      "wrapT": 10497
    }
  ],
  "scene": 0,
  "scenes": [
    {
      "name": "Sketchfab_Scene",
      "nodes": [
        0
      ]
    }
  ],
  "textures": [
    {
      "sampler": 0,
      "source": 0
    },
    {
      "sampler": 0,
      "source": 1
    },
    {
      "sampler": 0,
      "source": 2
    }
  ]
}
